<?xml version="1.0" encoding="utf-8"?>
<svg version="1.1" id="Layer_1" x="0px" y="0px" viewBox="0 0 512 512" style="enable-background:new 0 0 512 512;" xmlns="http://www.w3.org/2000/svg">
  <g transform="matrix(0.472336, 0.496008, -0.55863, 0.531969, 277.540588, -2.784044)" style="">
    <g>
      <path d="M 375.473 376.511 C 374.944 375.815 374.325 375.184 373.621 374.664 L 340.17 349.516 C 339.689 317.427 334.42 288.03 325.579 263.755 L 362.881 269.991 L 416.208 341.257 C 418.023 343.68 420.81 344.97 423.625 344.97 C 425.55 344.97 427.504 344.366 429.17 343.104 C 433.263 340.033 434.086 334.215 431.022 330.113 L 375.473 255.877 C 374.037 253.975 371.936 252.685 369.584 252.295 L 316.755 243.471 C 308.099 226.712 297.424 213.813 285.406 205.787 C 292.193 201.026 298.053 194.671 302.562 187.098 C 302.794 187.117 303.007 187.218 303.247 187.218 C 303.988 187.218 304.747 187.126 305.497 186.94 L 379.564 168.381 C 381.953 167.778 383.999 166.256 385.258 164.15 L 413.033 117.753 C 415.662 113.364 414.245 107.657 409.857 105.022 C 405.469 102.386 399.784 103.807 397.155 108.205 L 371.352 151.308 L 310.645 166.517 C 311.82 161.265 312.515 155.781 312.515 150.102 C 312.515 142.799 311.385 135.738 309.431 129.065 C 309.543 128.963 309.691 128.926 309.801 128.824 L 346.834 91.706 C 348.566 89.962 349.548 87.604 349.548 85.145 L 349.548 57.307 C 349.548 52.176 345.4 48.028 340.289 48.028 C 335.169 48.028 331.031 52.176 331.031 57.307 L 331.031 81.295 L 301.321 111.073 C 299.682 108.53 297.84 106.154 295.868 103.899 C 300.414 98.935 303.256 92.383 303.256 85.145 C 303.256 73.333 295.85 63.283 285.481 59.246 C 289.017 37.161 308.015 20.189 331.032 20.189 C 336.143 20.189 340.29 16.032 340.29 10.909 C 340.29 5.778 336.143 1.63 331.032 1.63 C 298.443 1.63 271.473 25.878 266.964 57.306 L 246.966 57.306 C 242.448 25.878 215.479 1.63 182.899 1.63 C 177.779 1.63 173.641 5.778 173.641 10.909 C 173.641 16.032 177.779 20.189 182.899 20.189 C 205.915 20.189 224.904 37.161 228.45 59.246 C 218.072 63.282 210.675 73.332 210.675 85.145 C 210.675 92.383 213.517 98.934 218.063 103.899 C 216.091 106.154 214.249 108.53 212.601 111.073 L 182.9 81.295 L 182.9 57.307 C 182.9 52.176 178.753 48.028 173.642 48.028 C 168.522 48.028 164.383 52.176 164.383 57.307 L 164.383 85.145 C 164.383 87.604 165.355 89.961 167.096 91.706 L 204.129 128.824 C 204.231 128.926 204.379 128.963 204.49 129.065 C 202.537 135.737 201.416 142.798 201.416 150.102 C 201.416 155.781 202.102 161.265 203.286 166.517 L 142.57 151.308 L 116.767 108.205 C 114.138 103.816 108.453 102.386 104.065 105.022 C 99.676 107.657 98.26 113.364 100.889 117.753 L 128.664 164.15 C 129.932 166.256 131.979 167.778 134.358 168.381 L 208.425 186.94 C 209.184 187.126 209.934 187.218 210.684 187.218 C 210.915 187.218 211.137 187.117 211.369 187.098 C 215.878 194.67 221.729 201.026 228.515 205.787 C 216.507 213.813 205.822 226.712 197.166 243.471 L 144.337 252.295 C 141.995 252.685 139.883 253.975 138.458 255.877 L 82.908 330.113 C 79.834 334.215 80.667 340.032 84.76 343.104 C 86.426 344.366 88.371 344.97 90.305 344.97 C 93.12 344.97 95.898 343.68 97.722 341.257 L 151.04 269.991 L 188.352 263.755 C 179.501 288.03 174.242 317.427 173.761 349.516 L 140.31 374.664 C 139.606 375.183 138.986 375.814 138.458 376.511 L 82.908 450.747 C 79.834 454.849 80.667 460.666 84.76 463.738 C 86.426 465 88.371 465.603 90.305 465.603 C 93.12 465.603 95.898 464.313 97.722 461.891 L 152.475 388.714 L 174.204 372.382 C 178.816 451.981 213.488 512 256.966 512 C 300.443 512 335.107 451.981 339.726 372.381 L 361.446 388.713 L 416.209 461.89 C 418.024 464.312 420.811 465.602 423.626 465.602 C 425.551 465.602 427.505 464.999 429.171 463.737 C 433.264 460.666 434.087 454.848 431.023 450.746 L 375.473 376.511 Z M 238.449 75.866 L 275.482 75.866 C 280.584 75.866 284.741 80.023 284.741 85.145 C 284.741 90.258 280.584 94.425 275.482 94.425 L 238.449 94.425 C 233.338 94.425 229.191 90.258 229.191 85.145 C 229.191 80.023 233.338 75.866 238.449 75.866 Z M 219.933 150.101 C 219.933 135.393 225.673 121.473 235.136 112.76 C 236.246 112.909 237.348 112.982 238.45 112.982 L 275.483 112.982 C 276.575 112.982 277.677 112.909 278.798 112.76 C 288.251 121.473 294.001 135.393 294.001 150.101 C 294.001 175.675 277.382 196.498 256.968 196.498 C 236.542 196.499 219.933 175.675 219.933 150.101 Z M 298.138 392.341 C 302.712 394.633 304.564 400.21 302.277 404.794 C 300.657 408.042 297.388 409.926 293.99 409.926 C 292.602 409.926 291.184 409.61 289.852 408.942 L 266.224 397.102 L 266.224 428.485 C 266.224 433.607 262.077 437.764 256.966 437.764 C 251.846 437.764 247.708 433.607 247.708 428.485 L 247.708 397.102 L 224.071 408.942 C 222.737 409.61 221.331 409.926 219.942 409.926 C 216.544 409.926 213.266 408.042 211.646 404.794 C 209.36 400.21 211.211 394.634 215.785 392.341 L 247.708 376.343 L 247.708 332.145 L 215.785 316.148 C 211.211 313.856 209.359 308.279 211.646 303.694 C 213.933 299.12 219.488 297.245 224.071 299.547 L 247.708 311.387 L 247.708 280.013 C 247.708 274.881 251.846 270.734 256.966 270.734 C 262.077 270.734 266.224 274.881 266.224 280.013 L 266.224 311.387 L 289.852 299.547 C 294.435 297.245 299.989 299.12 302.277 303.694 C 304.563 308.279 302.712 313.855 298.138 316.148 L 266.225 332.145 L 266.225 376.343 L 298.138 392.341 Z" style="" transform="matrix(0.713441, 0.622171, -0.789188, 0.71343, 276.310548, -86.279594)"/>
    </g>
  </g>
  <g/>
  <g/>
  <g/>
  <g/>
  <g/>
  <g/>
  <g/>
  <g/>
  <g/>
  <g/>
  <g/>
  <g/>
  <g/>
  <g/>
  <g/>
</svg>