<?xml version="1.0" encoding="utf-8"?>
<svg width="700pt" height="700pt" version="1.1" viewBox="0 0 700 700" xmlns="http://www.w3.org/2000/svg">
  <defs>
    <symbol id="v" overflow="visible">
      <path d="m18.766-1.125c-0.96875 0.5-1.9805 0.875-3.0312 1.125-1.043 0.25781-2.1367 0.39062-3.2812 0.39062-3.3984 0-6.0898-0.94531-8.0781-2.8438-1.9922-1.9062-2.9844-4.4844-2.9844-7.7344 0-3.2578 0.99219-5.8359 2.9844-7.7344 1.9883-1.9062 4.6797-2.8594 8.0781-2.8594 1.1445 0 2.2383 0.13281 3.2812 0.39062 1.0508 0.25 2.0625 0.625 3.0312 1.125v4.2188c-0.98047-0.65625-1.9453-1.1406-2.8906-1.4531-0.94922-0.3125-1.9492-0.46875-3-0.46875-1.875 0-3.3516 0.60547-4.4219 1.8125-1.0742 1.1992-1.6094 2.8555-1.6094 4.9688 0 2.1055 0.53516 3.7617 1.6094 4.9688 1.0703 1.1992 2.5469 1.7969 4.4219 1.7969 1.0508 0 2.0508-0.14844 3-0.45312 0.94531-0.3125 1.9102-0.80078 2.8906-1.4688z"/>
    </symbol>
    <symbol id="b" overflow="visible">
      <path d="m13.734-11.141c-0.4375-0.19531-0.87109-0.34375-1.2969-0.4375-0.41797-0.10156-0.83984-0.15625-1.2656-0.15625-1.2617 0-2.2305 0.40625-2.9062 1.2188-0.67969 0.80469-1.0156 1.9531-1.0156 3.4531v7.0625h-4.8906v-15.312h4.8906v2.5156c0.625-1 1.3438-1.7266 2.1562-2.1875 0.82031-0.46875 1.8008-0.70312 2.9375-0.70312 0.16406 0 0.34375 0.011719 0.53125 0.03125 0.19531 0.011719 0.47656 0.039062 0.84375 0.078125z"/>
    </symbol>
    <symbol id="a" overflow="visible">
      <path d="m17.641-7.7031v1.4062h-11.453c0.125 1.1484 0.53906 2.0078 1.25 2.5781 0.70703 0.57422 1.7031 0.85938 2.9844 0.85938 1.0312 0 2.082-0.14844 3.1562-0.45312 1.082-0.3125 2.1914-0.77344 3.3281-1.3906v3.7656c-1.1562 0.4375-2.3125 0.76562-3.4688 0.98438-1.1562 0.22656-2.3125 0.34375-3.4688 0.34375-2.7734 0-4.9297-0.70312-6.4688-2.1094-1.5312-1.4062-2.2969-3.3789-2.2969-5.9219 0-2.5 0.75391-4.4609 2.2656-5.8906 1.5078-1.4375 3.582-2.1562 6.2188-2.1562 2.4062 0 4.332 0.73047 5.7812 2.1875 1.4453 1.4492 2.1719 3.3828 2.1719 5.7969zm-5.0312-1.625c0-0.92578-0.27344-1.6719-0.8125-2.2344-0.54297-0.57031-1.25-0.85938-2.125-0.85938-0.94922 0-1.7188 0.26562-2.3125 0.79688s-0.96484 1.2969-1.1094 2.2969z"/>
    </symbol>
    <symbol id="e" overflow="visible">
      <path d="m9.2188-6.8906c-1.0234 0-1.793 0.17188-2.3125 0.51562-0.51172 0.34375-0.76562 0.85547-0.76562 1.5312 0 0.625 0.20703 1.1172 0.625 1.4688 0.41406 0.34375 0.98828 0.51562 1.7188 0.51562 0.92578 0 1.7031-0.32812 2.3281-0.98438 0.63281-0.66406 0.95312-1.4922 0.95312-2.4844v-0.5625zm7.4688-1.8438v8.7344h-4.9219v-2.2656c-0.65625 0.92969-1.3984 1.6055-2.2188 2.0312-0.82422 0.41406-1.8242 0.625-3 0.625-1.5859 0-2.8711-0.45703-3.8594-1.375-0.99219-0.92578-1.4844-2.1289-1.4844-3.6094 0-1.7891 0.61328-3.1016 1.8438-3.9375 1.2383-0.84375 3.1797-1.2656 5.8281-1.2656h2.8906v-0.39062c0-0.76953-0.30859-1.332-0.92188-1.6875-0.61719-0.36328-1.5703-0.54688-2.8594-0.54688-1.0547 0-2.0312 0.10547-2.9375 0.3125-0.89844 0.21094-1.7305 0.52344-2.5 0.9375v-3.7344c1.0391-0.25 2.0859-0.44141 3.1406-0.57812 1.0625-0.13281 2.125-0.20312 3.1875-0.20312 2.7578 0 4.75 0.54688 5.9688 1.6406 1.2266 1.0859 1.8438 2.8555 1.8438 5.3125z"/>
    </symbol>
    <symbol id="c" overflow="visible">
      <path d="m7.7031-19.656v4.3438h5.0469v3.5h-5.0469v6.5c0 0.71094 0.14062 1.1875 0.42188 1.4375s0.83594 0.375 1.6719 0.375h2.5156v3.5h-4.1875c-1.9375 0-3.3125-0.39844-4.125-1.2031-0.80469-0.8125-1.2031-2.1797-1.2031-4.1094v-6.5h-2.4219v-3.5h2.4219v-4.3438z"/>
    </symbol>
    <symbol id="l" overflow="visible">
      <path d="m12.766-13.078v-8.2031h4.9219v21.281h-4.9219v-2.2188c-0.66797 0.90625-1.4062 1.5703-2.2188 1.9844s-1.7578 0.625-2.8281 0.625c-1.8867 0-3.4336-0.75-4.6406-2.25-1.2109-1.5-1.8125-3.4258-1.8125-5.7812 0-2.3633 0.60156-4.2969 1.8125-5.7969 1.207-1.5 2.7539-2.25 4.6406-2.25 1.0625 0 2 0.21484 2.8125 0.64062 0.82031 0.42969 1.5664 1.0859 2.2344 1.9688zm-3.2188 9.9219c1.0391 0 1.8359-0.37891 2.3906-1.1406 0.55078-0.76953 0.82812-1.8828 0.82812-3.3438 0-1.457-0.27734-2.5664-0.82812-3.3281-0.55469-0.76953-1.3516-1.1562-2.3906-1.1562-1.043 0-1.8398 0.38672-2.3906 1.1562-0.55469 0.76172-0.82812 1.8711-0.82812 3.3281 0 1.4609 0.27344 2.5742 0.82812 3.3438 0.55078 0.76172 1.3477 1.1406 2.3906 1.1406z"/>
    </symbol>
    <symbol id="k" overflow="visible">
      <path d="m10.5-3.1562c1.0508 0 1.8516-0.37891 2.4062-1.1406 0.55078-0.76953 0.82812-1.8828 0.82812-3.3438 0-1.457-0.27734-2.5664-0.82812-3.3281-0.55469-0.76953-1.3555-1.1562-2.4062-1.1562-1.0547 0-1.8594 0.38672-2.4219 1.1562-0.55469 0.77344-0.82812 1.8828-0.82812 3.3281 0 1.4492 0.27344 2.5586 0.82812 3.3281 0.5625 0.77344 1.3672 1.1562 2.4219 1.1562zm-3.25-9.9219c0.67578-0.88281 1.4219-1.5391 2.2344-1.9688 0.82031-0.42578 1.7656-0.64062 2.8281-0.64062 1.8945 0 3.4453 0.75 4.6562 2.25 1.207 1.5 1.8125 3.4336 1.8125 5.7969 0 2.3555-0.60547 4.2812-1.8125 5.7812-1.2109 1.5-2.7617 2.25-4.6562 2.25-1.0625 0-2.0078-0.21094-2.8281-0.625-0.8125-0.42578-1.5586-1.0859-2.2344-1.9844v2.2188h-4.8906v-21.281h4.8906z"/>
    </symbol>
    <symbol id="j" overflow="visible">
      <path d="m0.34375-15.312h4.8906l4.125 10.391 3.5-10.391h4.8906l-6.4375 16.766c-0.64844 1.6953-1.4023 2.8828-2.2656 3.5625-0.86719 0.6875-2 1.0312-3.4062 1.0312h-2.8438v-3.2188h1.5312c0.83203 0 1.4375-0.13672 1.8125-0.40625 0.38281-0.26172 0.67969-0.73047 0.89062-1.4062l0.14062-0.42188z"/>
    </symbol>
    <symbol id="i" overflow="visible">
      <path d="m7.25-2.2188v8.0469h-4.8906v-21.141h4.8906v2.2344c0.67578-0.88281 1.4219-1.5391 2.2344-1.9688 0.82031-0.42578 1.7656-0.64062 2.8281-0.64062 1.8945 0 3.4453 0.75 4.6562 2.25 1.207 1.5 1.8125 3.4336 1.8125 5.7969 0 2.3555-0.60547 4.2812-1.8125 5.7812-1.2109 1.5-2.7617 2.25-4.6562 2.25-1.0625 0-2.0078-0.21094-2.8281-0.625-0.8125-0.42578-1.5586-1.0859-2.2344-1.9844zm3.25-9.9062c-1.0547 0-1.8594 0.38672-2.4219 1.1562-0.55469 0.77344-0.82812 1.8828-0.82812 3.3281 0 1.4492 0.27344 2.5586 0.82812 3.3281 0.5625 0.77344 1.3672 1.1562 2.4219 1.1562 1.0508 0 1.8516-0.37891 2.4062-1.1406 0.55078-0.76953 0.82812-1.8828 0.82812-3.3438 0-1.457-0.27734-2.5664-0.82812-3.3281-0.55469-0.76953-1.3555-1.1562-2.4062-1.1562z"/>
    </symbol>
    <symbol id="u" overflow="visible">
      <path d="m2.3594-21.281h4.8906v11.594l5.625-5.625h5.6875l-7.4688 7.0312 8.0625 8.2812h-5.9375l-5.9688-6.3906v6.3906h-4.8906z"/>
    </symbol>
    <symbol id="h" overflow="visible">
      <path d="m2.3594-15.312h4.8906v15.031c0 2.0508-0.49609 3.6172-1.4844 4.7031-0.98047 1.082-2.4062 1.625-4.2812 1.625h-2.4219v-3.2188h0.85938c0.92578 0 1.5625-0.21094 1.9062-0.625 0.35156-0.41797 0.53125-1.2461 0.53125-2.4844zm0-5.9688h4.8906v4h-4.8906z"/>
    </symbol>
    <symbol id="t" overflow="visible">
      <path d="m2.3594-15.312h4.8906v15.312h-4.8906zm0-5.9688h4.8906v4h-4.8906z"/>
    </symbol>
    <symbol id="s" overflow="visible">
      <path d="m14.312-14.828v3.7188c-1.043-0.4375-2.0547-0.76562-3.0312-0.98438-0.98047-0.21875-1.9023-0.32812-2.7656-0.32812-0.92969 0-1.6211 0.11719-2.0781 0.34375-0.44922 0.23047-0.67188 0.58984-0.67188 1.0781 0 0.38672 0.17188 0.68359 0.51562 0.89062 0.34375 0.21094 0.95703 0.36719 1.8438 0.46875l0.85938 0.125c2.5078 0.32422 4.1953 0.85156 5.0625 1.5781 0.86328 0.73047 1.2969 1.8711 1.2969 3.4219 0 1.6367-0.60547 2.8672-1.8125 3.6875-1.1992 0.8125-2.9922 1.2188-5.375 1.2188-1.0234 0-2.0742-0.078125-3.1562-0.23438-1.0742-0.15625-2.1797-0.39453-3.3125-0.71875v-3.7188c0.96875 0.48047 1.9609 0.83984 2.9844 1.0781 1.0312 0.23047 2.0781 0.34375 3.1406 0.34375 0.95703 0 1.6758-0.12891 2.1562-0.39062 0.47656-0.26953 0.71875-0.66406 0.71875-1.1875 0-0.4375-0.16797-0.75781-0.5-0.96875-0.33594-0.21875-0.99609-0.38281-1.9844-0.5l-0.85938-0.10938c-2.1797-0.26953-3.7031-0.77344-4.5781-1.5156-0.875-0.73828-1.3125-1.8594-1.3125-3.3594 0-1.625 0.55078-2.8281 1.6562-3.6094 1.1133-0.78906 2.8203-1.1875 5.125-1.1875 0.89453 0 1.8359 0.074219 2.8281 0.21875 1 0.13672 2.082 0.35156 3.25 0.64062z"/>
    </symbol>
    <symbol id="g" overflow="visible">
      <path d="m2.1875-5.9688v-9.3438h4.9219v1.5312c0 0.83594-0.007813 1.875-0.015625 3.125-0.011719 1.25-0.015625 2.0859-0.015625 2.5 0 1.2422 0.03125 2.1328 0.09375 2.6719 0.070313 0.54297 0.17969 0.93359 0.32812 1.1719 0.20703 0.32422 0.47266 0.57422 0.79688 0.75 0.32031 0.16797 0.69141 0.25 1.1094 0.25 1.0195 0 1.8203-0.39062 2.4062-1.1719 0.58203-0.78125 0.875-1.8672 0.875-3.2656v-7.5625h4.8906v15.312h-4.8906v-2.2188c-0.74219 0.89844-1.5234 1.5586-2.3438 1.9844-0.82422 0.41406-1.7344 0.625-2.7344 0.625-1.7617 0-3.1055-0.53906-4.0312-1.625-0.92969-1.082-1.3906-2.6602-1.3906-4.7344z"/>
    </symbol>
    <symbol id="f" overflow="visible">
      <path d="m17.75-9.3281v9.3281h-4.9219v-7.1406c0-1.3203-0.03125-2.2344-0.09375-2.7344s-0.16797-0.86719-0.3125-1.1094c-0.1875-0.3125-0.44922-0.55469-0.78125-0.73438-0.32422-0.17578-0.69531-0.26562-1.1094-0.26562-1.0234 0-1.8242 0.39844-2.4062 1.1875-0.58594 0.78125-0.875 1.8711-0.875 3.2656v7.5312h-4.8906v-15.312h4.8906v2.2344c0.73828-0.88281 1.5195-1.5391 2.3438-1.9688 0.83203-0.42578 1.75-0.64062 2.75-0.64062 1.7695 0 3.1133 0.54688 4.0312 1.6406 0.91406 1.0859 1.375 2.6562 1.375 4.7188z"/>
    </symbol>
    <symbol id="r" overflow="visible">
      <path d="m12.422-21.281v3.2188h-2.7031c-0.6875 0-1.1719 0.125-1.4531 0.375-0.27344 0.25-0.40625 0.6875-0.40625 1.3125v1.0625h4.1875v3.5h-4.1875v11.812h-4.8906v-11.812h-2.4375v-3.5h2.4375v-1.0625c0-1.6641 0.46094-2.8984 1.3906-3.7031 0.92578-0.80078 2.3672-1.2031 4.3281-1.2031z"/>
    </symbol>
    <symbol id="d" overflow="visible">
      <path d="m9.6406-12.188c-1.0859 0-1.9141 0.39062-2.4844 1.1719-0.57422 0.78125-0.85938 1.9062-0.85938 3.375s0.28516 2.5938 0.85938 3.375c0.57031 0.77344 1.3984 1.1562 2.4844 1.1562 1.0625 0 1.875-0.38281 2.4375-1.1562 0.57031-0.78125 0.85938-1.9062 0.85938-3.375s-0.28906-2.5938-0.85938-3.375c-0.5625-0.78125-1.375-1.1719-2.4375-1.1719zm0-3.5c2.6328 0 4.6914 0.71484 6.1719 2.1406 1.4766 1.418 2.2188 3.3867 2.2188 5.9062 0 2.5117-0.74219 4.4805-2.2188 5.9062-1.4805 1.418-3.5391 2.125-6.1719 2.125-2.6484 0-4.7148-0.70703-6.2031-2.125-1.4922-1.4258-2.2344-3.3945-2.2344-5.9062 0-2.5195 0.74219-4.4883 2.2344-5.9062 1.4883-1.4258 3.5547-2.1406 6.2031-2.1406z"/>
    </symbol>
    <symbol id="q" overflow="visible">
      <path d="m16.547-12.766c0.61328-0.94531 1.3477-1.6719 2.2031-2.1719 0.85156-0.5 1.7891-0.75 2.8125-0.75 1.7578 0 3.0977 0.54688 4.0156 1.6406 0.92578 1.0859 1.3906 2.6562 1.3906 4.7188v9.3281h-4.9219v-7.9844-0.35938c0.007813-0.13281 0.015625-0.32031 0.015625-0.5625 0-1.082-0.16406-1.8633-0.48438-2.3438-0.3125-0.48828-0.82422-0.73438-1.5312-0.73438-0.92969 0-1.6484 0.38672-2.1562 1.1562-0.51172 0.76172-0.77344 1.8672-0.78125 3.3125v7.5156h-4.9219v-7.9844c0-1.6953-0.14844-2.7852-0.4375-3.2656-0.29297-0.48828-0.8125-0.73438-1.5625-0.73438-0.9375 0-1.6641 0.38672-2.1719 1.1562-0.51172 0.76172-0.76562 1.8594-0.76562 3.2969v7.5312h-4.9219v-15.312h4.9219v2.2344c0.60156-0.86328 1.2891-1.5156 2.0625-1.9531 0.78125-0.4375 1.6406-0.65625 2.5781-0.65625 1.0625 0 2 0.25781 2.8125 0.76562 0.8125 0.51172 1.4258 1.2305 1.8438 2.1562z"/>
    </symbol>
    <symbol id="p" overflow="visible">
      <path d="m17.75-9.3281v9.3281h-4.9219v-7.1094c0-1.3438-0.03125-2.2656-0.09375-2.7656s-0.16797-0.86719-0.3125-1.1094c-0.1875-0.3125-0.44922-0.55469-0.78125-0.73438-0.32422-0.17578-0.69531-0.26562-1.1094-0.26562-1.0234 0-1.8242 0.39844-2.4062 1.1875-0.58594 0.78125-0.875 1.8711-0.875 3.2656v7.5312h-4.8906v-21.281h4.8906v8.2031c0.73828-0.88281 1.5195-1.5391 2.3438-1.9688 0.83203-0.42578 1.75-0.64062 2.75-0.64062 1.7695 0 3.1133 0.54688 4.0312 1.6406 0.91406 1.0859 1.375 2.6562 1.375 4.7188z"/>
    </symbol>
    <symbol id="o" overflow="visible">
      <path d="m2.5781-20.406h5.875l7.4219 14v-14h4.9844v20.406h-5.875l-7.4219-14v14h-4.9844z"/>
    </symbol>
    <symbol id="n" overflow="visible">
      <path d="m2.5781-20.406h8.7344c2.5938 0 4.582 0.57812 5.9688 1.7344 1.3945 1.1484 2.0938 2.7891 2.0938 4.9219 0 2.1367-0.69922 3.7812-2.0938 4.9375-1.3867 1.1562-3.375 1.7344-5.9688 1.7344h-3.4844v7.0781h-5.25zm5.25 3.8125v5.7031h2.9219c1.0195 0 1.8047-0.25 2.3594-0.75 0.5625-0.5 0.84375-1.2031 0.84375-2.1094 0-0.91406-0.28125-1.6172-0.84375-2.1094-0.55469-0.48828-1.3398-0.73438-2.3594-0.73438z"/>
    </symbol>
    <symbol id="m" overflow="visible">
      <path d="m14.719-14.828v3.9844c-0.65625-0.45703-1.3242-0.79688-2-1.0156-0.66797-0.21875-1.3594-0.32812-2.0781-0.32812-1.3672 0-2.4336 0.40234-3.2031 1.2031-0.76172 0.79297-1.1406 1.9062-1.1406 3.3438 0 1.4297 0.37891 2.543 1.1406 3.3438 0.76953 0.79297 1.8359 1.1875 3.2031 1.1875 0.75781 0 1.4844-0.10938 2.1719-0.32812 0.6875-0.22656 1.3203-0.56641 1.9062-1.0156v4c-0.76172 0.28125-1.5391 0.48828-2.3281 0.625-0.78125 0.14453-1.5742 0.21875-2.375 0.21875-2.7617 0-4.9219-0.70703-6.4844-2.125-1.5547-1.4141-2.3281-3.3828-2.3281-5.9062 0-2.5312 0.77344-4.5039 2.3281-5.9219 1.5625-1.4141 3.7227-2.125 6.4844-2.125 0.80078 0 1.5938 0.074219 2.375 0.21875 0.78125 0.13672 1.5547 0.35156 2.3281 0.64062z"/>
    </symbol>
  </defs>
  <polygon style="stroke: rgb(0, 0, 0); fill: rgb(255, 255, 255);" points="104.515 111.807 105.315 96.726 328.574 31.802 359.998 42.047 397.726 38.867 399.155 58.764 598.024 128.281 600.941 147.314 587.146 154.952 582.418 407.418 587.317 429.039 400.564 526.254 289.625 478.735 238.471 493.525 142.585 443.22 143.895 425.377 165.38 418.571 121.868 405.778 125.228 120.014"/>
  <g>
    <g style="">
      <path d="M 333.2 252.559 C 331.52 252.001 330.399 250.321 330.954 248.637 L 330.954 222.317 C 330.954 220.634 331.513 219.516 332.634 218.395 C 333.755 217.278 335.434 217.278 336.556 217.837 L 358.954 225.677 C 360.633 226.798 361.754 228.477 361.754 230.157 L 361.754 258.716 C 361.754 260.4 360.637 262.079 359.516 262.638 C 358.957 263.197 358.399 263.197 357.278 263.197 C 356.719 263.197 356.157 262.638 355.598 262.638 L 333.2 252.56 L 333.2 252.559 Z M 339.36 245.841 L 352.801 252.001 L 352.801 234.079 L 339.36 229.04 L 339.36 245.841 Z M 145.6 182.559 C 143.92 182.001 142.799 180.321 142.799 178.641 L 142.799 152.321 C 142.799 151.2 143.358 149.52 145.034 148.395 C 146.155 147.278 147.834 147.278 148.956 147.837 L 171.354 155.677 C 173.033 156.798 174.154 158.477 174.154 160.157 L 174.154 188.716 C 174.154 190.4 173.037 192.079 171.916 192.638 C 171.357 193.197 170.799 193.197 169.678 193.197 C 169.119 193.197 168.557 192.638 167.998 192.638 L 145.6 182.56 L 145.6 182.559 Z M 151.76 175.841 L 165.201 182.001 L 165.201 164.079 L 151.76 159.04 L 151.76 175.841 Z M 192.64 201.039 C 190.96 199.922 189.839 198.801 190.394 197.117 L 190.394 170.797 C 190.394 169.114 190.953 167.996 192.074 166.875 C 193.195 165.758 194.874 165.758 195.996 166.317 L 218.394 174.157 C 220.073 175.278 221.194 176.957 221.194 178.637 L 221.194 207.196 C 221.194 208.88 220.077 210.559 218.956 211.118 C 218.397 211.677 217.839 211.677 216.718 211.677 C 216.159 211.677 215.597 211.118 215.038 211.118 L 192.64 201.04 L 192.64 201.039 Z M 198.8 193.763 L 212.241 199.923 L 212.241 182.001 L 198.8 176.962 L 198.8 193.763 Z M 236.878 212.799 L 236.874 187.037 C 236.874 185.354 237.433 184.236 238.554 183.115 C 239.675 181.998 241.354 181.998 242.476 182.557 L 264.874 190.397 C 266.553 191.518 267.674 193.197 267.674 194.877 L 267.674 223.436 C 267.674 225.12 266.557 226.799 265.436 227.358 C 264.877 227.917 264.319 227.917 263.198 227.917 C 262.639 227.917 262.077 227.358 261.518 227.358 L 239.12 217.28 C 237.999 216.159 236.878 215.038 236.878 212.799 Z M 245.839 209.999 L 259.28 216.159 L 259.28 198.237 L 245.839 193.198 L 245.839 209.999 Z M 286.16 236.319 C 284.48 235.761 283.922 234.077 283.914 232.397 L 283.914 206.077 C 283.914 204.394 284.473 203.276 285.594 202.155 C 286.715 201.038 288.394 201.038 289.516 201.597 L 311.914 209.437 C 313.593 210.558 314.714 212.237 314.714 213.917 L 314.714 242.476 C 314.714 244.16 313.597 245.839 312.476 246.398 C 311.917 246.957 311.359 246.957 310.238 246.957 C 309.679 246.957 309.117 246.398 308.558 246.398 L 286.16 236.32 L 286.16 236.319 Z M 292.879 229.039 L 306.32 235.199 L 306.32 217.277 L 292.879 212.238 L 292.879 229.039 Z M 542.08 218.959 C 540.963 217.838 539.842 216.717 539.279 215.038 L 539.279 189.839 C 539.279 188.155 540.4 186.475 542.08 185.917 L 564.478 175.839 C 566.158 175.276 567.837 175.839 568.959 176.397 C 570.638 177.518 571.197 178.639 571.197 180.319 L 571.197 204.96 C 571.197 206.644 570.076 208.323 568.396 208.882 L 545.998 218.96 C 545.439 219.519 544.877 219.519 544.318 219.519 C 543.76 219.519 542.639 219.519 542.08 218.96 L 542.08 218.959 Z M 549.361 207.757 L 562.802 201.597 L 562.802 187.038 L 549.361 193.198 L 549.361 207.757 Z M 451.359 248.642 L 451.359 223.443 C 451.359 221.759 452.48 220.08 454.16 219.521 L 476.558 210.002 C 478.238 209.439 479.917 210.002 481.039 210.56 C 482.718 211.681 483.277 212.802 483.277 214.482 L 483.277 238.56 C 483.277 240.244 482.156 241.923 480.476 242.482 L 458.078 252.56 C 457.519 253.119 456.957 253.119 456.398 253.119 C 455.84 253.119 454.719 253.119 454.16 252.56 C 453.039 252.001 452.48 250.322 451.359 248.642 Z M 461.441 241.92 L 474.882 235.759 L 474.882 221.2 L 461.441 226.802 L 461.441 241.92 Z M 602.561 148.395 C 602.561 150.637 601.44 152.317 599.76 152.876 L 587.998 156.798 L 587.998 236.876 L 587.994 405.436 L 588.553 405.436 C 590.233 406.557 590.791 407.678 590.791 409.357 L 590.791 433.435 C 590.791 435.119 589.67 436.799 587.99 437.357 L 399.83 530.318 L 395.354 530.318 L 288.954 484.959 C 288.391 484.959 288.391 484.401 287.833 484.401 L 239.114 497.28 L 235.754 497.28 L 140.555 446.319 C 139.438 445.756 138.317 444.077 138.317 442.397 L 138.313 424.479 C 138.313 422.237 139.997 420.557 142.235 419.998 L 146.723 418.877 L 119.844 407.678 C 118.165 407.116 117.044 405.436 117.044 403.756 L 117.044 380.795 C 117.044 379.112 118.161 377.432 119.282 376.873 L 119.282 124.313 L 101.923 117.595 C 100.243 116.474 99.122 114.794 99.122 113.114 L 99.122 91.278 L 100.239 90.161 C 100.239 89.603 100.798 89.603 100.798 89.603 L 101.356 89.603 L 323.676 29.119 C 324.798 28.56 325.356 28.56 326.477 29.119 L 353.918 38.638 C 355.598 36.396 357.84 35.275 360.078 34.716 C 361.758 34.716 364 34.716 365.68 35.837 C 367.36 35.837 369.598 36.4 372.399 36.958 C 377.996 38.08 384.156 38.08 389.758 36.4 C 392 35.841 394.238 35.283 397.039 34.162 C 398.719 33.603 399.84 33.603 401.527 34.72 C 402.648 35.841 403.207 36.962 403.207 38.642 L 403.207 55.443 L 599.207 124.322 L 599.766 124.322 C 599.766 124.881 600.324 124.881 600.324 124.881 L 600.883 125.439 C 601.441 125.439 601.441 125.998 601.441 125.998 C 602 126.56 602 126.56 602 127.119 L 602 128.24 L 602.561 148.395 Z M 361.201 58.802 L 362.88 59.361 C 374.638 63.283 376.317 63.841 380.239 63.283 C 385.278 62.724 390.88 59.923 394.239 58.802 L 394.239 44.802 L 392.559 44.802 C 385.279 46.482 378.001 47.04 370.72 45.361 C 367.36 44.798 365.118 44.24 363.438 44.24 C 362.321 44.24 361.759 43.681 361.2 43.681 C 361.763 43.681 361.2 43.681 361.2 43.681 L 361.201 58.802 Z M 461.44 137.201 L 473.76 132.162 L 473.76 126.56 L 461.44 130.482 L 461.44 137.201 Z M 481.04 112.003 L 365.12 73.921 L 361.761 72.8 L 361.761 105.28 C 361.761 107.522 359.518 109.761 357.28 109.761 C 355.038 109.761 352.799 107.518 352.799 105.28 L 352.799 69.44 L 324.799 58.799 L 222.879 87.92 L 222.879 95.76 L 230.719 98.561 L 252 106.4 L 343.277 140.56 L 364.558 148.4 L 371.84 151.201 L 380.797 148.404 L 402.078 141.123 L 455.277 123.201 L 476.558 115.92 L 481.038 114.24 L 481.04 112.003 Z M 386.96 162.4 L 399.28 158.478 L 399.28 151.759 L 386.96 155.681 L 386.96 162.4 Z M 346.077 155.681 L 358.397 160.162 L 358.397 155.681 L 346.077 151.201 L 346.077 155.681 Z M 245.837 114.24 L 233.517 109.759 L 233.517 115.361 L 245.837 119.283 L 245.837 114.24 Z M 117.594 94.078 L 397.034 193.762 L 585.194 127.68 L 403.194 63.84 C 403.194 64.402 402.631 64.961 402.073 64.961 C 401.515 65.52 393.675 69.441 385.835 71.121 L 488.315 104.16 C 490.553 104.719 491.674 106.402 491.674 108.641 L 491.674 117.039 C 491.674 119.281 490.553 120.961 488.873 121.52 L 484.393 123.199 L 484.401 136.637 C 484.401 138.321 483.28 140.001 481.6 140.559 L 460.319 149.52 C 458.639 150.083 456.959 150.083 455.838 148.961 C 454.159 147.84 453.6 146.719 453.6 145.04 L 453.6 134.962 L 409.362 150.083 L 409.362 162.962 C 409.362 165.204 408.241 166.883 406.561 167.442 L 385.28 174.723 L 383.601 174.723 C 382.48 174.723 381.358 174.161 380.8 173.602 C 379.679 172.481 379.12 171.36 379.12 169.68 L 379.12 159.602 L 374.64 161.282 C 374.077 161.841 372.96 161.841 371.839 161.282 L 369.038 160.161 L 369.038 168.001 C 369.038 169.684 367.921 170.801 366.8 171.923 C 365.679 173.04 363.999 173.04 362.878 172.481 L 341.597 164.083 C 339.917 162.962 338.796 161.282 338.796 159.602 L 338.796 148.403 L 256.476 117.602 L 256.476 125.442 C 256.476 127.684 254.234 129.923 251.996 129.923 L 250.316 129.923 L 228.476 122.641 C 226.238 122.083 225.116 119.841 225.116 118.161 L 225.116 105.841 L 217.277 103.04 C 215.597 101.919 214.476 100.239 214.476 98.56 L 214.476 84.56 C 214.476 82.317 216.156 80.638 217.835 80.079 L 324.235 49.841 C 325.356 49.282 325.915 49.282 327.036 49.841 L 352.798 59.919 L 352.798 47.04 L 325.357 37.521 L 117.594 94.078 Z M 578.477 243.045 L 402.077 315.283 L 402.077 494.483 L 578.477 408.241 L 578.477 243.045 Z M 272.157 439.606 L 245.837 427.286 L 189.278 400.966 L 172.477 403.767 L 172.477 418.326 L 258.715 462.006 L 258.715 448.565 C 258.715 445.205 260.958 442.405 264.317 441.284 L 272.157 439.606 Z M 175.278 372.401 L 188.719 378.561 L 188.719 356.721 L 175.278 350.561 L 175.278 372.401 Z M 277.198 387.526 L 310.8 369.604 L 310.8 363.444 L 196.56 314.725 L 165.759 325.924 L 165.759 336.002 L 277.198 387.526 Z M 217.279 403.206 L 243.599 415.525 L 243.599 381.366 L 217.279 369.604 L 217.279 403.206 Z M 283.356 434.564 L 283.356 394.244 L 279.435 396.483 C 278.876 397.041 277.755 397.041 277.196 397.041 C 276.638 397.041 276.075 396.483 275.517 396.483 L 252.556 385.842 L 252.556 420.002 L 283.356 434.564 Z M 292.869 434.563 L 292.873 453.043 L 393.113 495.043 L 393.113 315.843 L 127.673 212.243 L 127.669 379.123 L 166.31 395.924 C 166.31 395.365 166.873 395.365 167.431 395.365 L 189.271 391.444 C 190.393 391.444 190.951 391.444 192.072 392.002 L 207.189 399.842 L 207.189 365.682 L 197.111 361.201 L 197.111 385.279 C 197.111 386.963 195.994 388.643 194.873 389.201 C 194.314 389.76 193.756 389.76 192.635 389.76 C 192.076 389.76 191.514 389.201 190.955 389.201 L 168.557 379.123 C 166.877 378.561 165.756 376.881 165.756 375.201 L 165.748 346.076 L 162.389 344.397 L 162.389 369.038 C 162.389 370.721 161.272 372.401 160.151 372.96 C 159.592 373.518 159.033 373.518 157.912 373.518 C 157.354 373.518 156.791 372.96 156.233 372.96 L 133.835 362.882 C 132.155 362.319 131.034 360.639 131.034 358.96 L 131.034 309.679 C 131.034 307.995 132.151 306.315 133.272 305.757 C 134.393 305.198 136.073 305.198 137.753 305.757 L 161.273 318.077 L 194.875 305.757 C 195.996 305.198 197.113 305.198 198.234 305.757 L 316.954 356.155 C 318.634 356.717 319.755 358.397 319.755 360.077 L 319.755 371.839 C 319.755 373.522 319.196 375.202 317.517 375.761 L 292.318 389.202 L 292.318 434.561 L 292.869 434.563 Z M 140.557 316.959 L 140.557 356.158 L 153.998 362.319 L 153.998 324.241 L 140.557 316.959 Z M 124.318 117.04 C 125.997 118.161 127.119 119.841 127.119 121.521 L 127.119 202.72 L 392.559 306.32 L 392.559 224.945 L 392.559 202.16 L 106.959 100.24 L 106.959 110.881 L 124.318 117.04 Z M 162.959 417.2 C 162.959 417.2 163.518 417.2 162.959 417.2 L 163.522 417.763 L 163.522 405.443 L 124.881 388.642 L 124.881 401.521 L 162.959 417.201 L 162.959 417.2 Z M 233.518 479.357 C 233.518 475.998 235.76 473.197 239.12 472.076 L 251.44 468.717 L 167.44 426.158 L 147.28 428.959 L 147.28 440.158 L 233.518 486.08 L 233.518 479.357 Z M 283.353 477.684 L 283.353 446.325 L 268.232 450.806 L 268.232 470.966 C 268.232 471.529 267.673 471.529 267.673 472.087 L 266.556 473.205 C 265.994 473.763 265.994 473.763 265.435 473.763 L 243.037 480.482 L 243.037 487.763 L 283.353 477.684 Z M 393.118 519.684 L 393.118 504.563 L 292.318 462.563 L 292.318 477.122 L 393.118 519.684 Z M 580.718 417.2 L 401.518 504.559 L 401.518 519.68 L 580.718 431.2 L 580.718 417.2 Z M 593.035 134.402 L 402.075 202.164 L 402.075 305.764 L 578.475 234.084 L 578.475 153.443 C 578.475 151.2 579.596 149.521 581.276 148.962 L 593.038 145.04 L 593.035 134.402 Z M 407.679 263.759 L 407.679 239.681 C 407.679 237.998 408.8 236.318 410.48 235.76 L 432.878 226.799 C 434.558 226.236 436.237 226.236 437.359 227.357 C 439.038 228.478 439.597 229.599 439.597 231.279 L 439.597 254.24 C 439.597 255.924 438.476 257.603 436.796 258.162 L 414.398 268.24 C 413.839 268.799 413.277 268.799 412.718 268.799 C 412.16 268.799 411.039 268.799 410.48 268.24 C 409.359 267.681 408.238 266.002 407.679 263.759 Z M 417.761 257.603 L 431.202 251.442 L 431.202 238.001 L 417.761 243.603 L 417.761 257.603 Z M 498.4 235.759 C 496.72 234.638 496.162 233.517 495.599 231.838 L 495.599 206.639 C 495.599 204.955 496.72 203.275 498.4 202.717 L 520.798 192.639 C 522.478 192.076 524.157 192.639 525.279 193.197 C 526.958 194.318 527.517 195.439 527.517 197.119 L 527.517 221.76 C 527.517 223.444 526.396 225.123 524.716 225.682 L 502.318 235.76 C 501.759 236.319 501.197 236.319 500.638 236.319 C 500.08 236.319 498.959 236.319 498.4 235.76 L 498.4 235.759 Z M 505.119 224.557 L 518.56 218.397 L 518.564 203.838 L 505.123 209.998 L 505.119 224.557 Z M 498.96 324.799 C 497.839 324.237 496.718 322.557 496.159 320.878 L 496.159 295.679 C 496.159 293.995 497.28 292.315 498.96 291.757 L 521.358 281.679 C 523.038 281.116 524.717 281.679 525.839 282.237 C 527.518 283.358 528.077 284.479 528.077 286.159 L 528.077 310.8 C 528.077 312.484 526.956 314.163 525.276 314.722 L 502.878 324.8 C 502.319 325.359 501.757 325.359 501.198 325.359 C 500.64 325.359 499.519 325.359 498.96 324.8 L 498.96 324.799 Z M 505.679 314.159 L 519.12 307.999 L 519.12 292.878 L 505.679 299.038 L 505.679 314.159 Z M 535.915 403.76 L 535.915 349.44 C 535.915 347.756 537.036 346.076 538.716 345.518 L 561.114 334.877 C 562.794 334.314 564.474 334.877 565.595 335.435 C 567.274 336.556 567.833 337.677 567.833 339.357 L 567.833 392.556 C 567.833 394.24 567.274 395.919 565.595 396.478 L 543.197 408.24 C 542.638 408.799 541.517 408.799 540.958 408.799 C 540.4 408.799 539.279 408.799 538.72 408.24 C 537.04 407.681 536.482 406.002 535.915 403.76 Z M 545.443 397.041 L 558.884 390.322 L 558.884 346.642 L 545.443 352.802 L 545.443 397.041 Z M 440.714 393.116 C 442.394 394.237 442.952 395.358 442.952 397.038 L 442.952 452.479 C 442.952 454.163 442.394 455.842 440.714 456.401 L 418.316 468.163 C 417.758 468.721 416.636 468.721 416.078 468.721 C 415.519 468.721 414.398 468.721 413.84 468.163 C 412.16 467.042 411.601 465.921 411.601 464.241 L 411.601 408.241 C 411.601 406.557 412.722 404.878 414.402 404.319 L 436.8 393.12 C 438.48 392.557 440.159 392.557 440.714 393.116 Z M 434.558 403.757 L 421.117 410.476 L 421.117 456.398 L 434.558 449.679 L 434.558 403.757 Z M 408.239 353.359 L 408.239 329.281 C 408.239 327.598 409.36 325.918 411.04 325.36 L 433.438 316.399 C 435.118 315.836 436.797 315.836 437.919 316.957 C 439.598 318.078 440.157 319.199 440.157 320.879 L 440.157 343.84 C 440.157 345.524 439.036 347.203 437.356 347.762 L 414.958 357.84 C 414.399 358.399 413.837 358.399 413.278 358.399 C 412.72 358.399 411.599 358.399 411.04 357.84 C 409.923 356.719 409.36 355.602 408.239 353.359 Z M 418.321 347.199 L 431.762 341.038 L 431.762 327.597 L 418.321 333.199 L 418.321 347.199 Z M 542.64 307.999 C 541.519 307.441 540.96 305.761 539.839 304.078 L 539.839 278.879 C 539.839 277.195 540.96 275.515 542.64 274.957 L 565.038 264.879 C 566.718 264.316 568.397 264.879 569.519 265.437 C 571.198 266.558 571.757 267.679 571.757 269.359 L 571.757 294 C 571.757 295.684 570.636 297.363 568.956 297.922 L 546.558 308 C 545.999 308.559 545.437 308.559 544.878 308.559 C 544.32 308.559 543.199 308.559 542.64 308 L 542.64 307.999 Z M 549.917 297.359 L 563.358 291.199 L 563.362 276.078 L 549.921 282.238 L 549.917 297.359 Z M 452.479 337.682 L 452.479 312.483 C 452.479 310.799 453.6 309.12 455.28 308.561 L 477.678 299.042 C 479.358 298.479 481.037 298.479 482.159 299.6 C 483.838 300.721 484.397 301.842 484.397 303.522 L 484.397 327.6 C 484.397 329.284 483.276 330.963 481.596 331.522 L 459.198 341.6 C 458.639 342.159 458.077 342.159 457.518 342.159 C 456.96 342.159 455.839 342.159 455.28 341.6 C 453.6 341.038 453.038 339.358 452.479 337.682 Z M 461.999 330.959 L 475.44 324.798 L 475.44 310.236 L 461.999 315.838 L 461.999 330.959 Z M 445.199 447.999 L 445.195 393.12 C 445.195 391.436 446.316 389.756 447.996 389.198 L 470.394 378.557 C 472.074 377.994 473.754 378.557 474.875 379.115 C 476.554 380.236 477.113 381.357 477.113 383.037 L 477.113 436.236 C 477.113 437.92 476.554 439.599 474.875 440.158 L 452.477 451.92 C 451.918 452.479 450.797 452.479 450.238 452.479 C 449.68 452.479 448.559 452.479 448 451.92 C 446.879 450.799 445.762 449.678 445.199 447.999 Z M 454.719 440.718 L 468.16 433.999 L 468.16 390.319 L 454.719 396.479 L 454.719 440.718 Z M 526.392 349.437 C 528.071 348.316 529.751 348.878 530.872 349.437 C 532.552 350.558 533.11 351.679 533.11 353.359 L 533.11 408.8 C 533.11 410.484 532.552 412.163 530.872 412.722 L 508.474 424.484 C 507.916 425.042 506.794 425.042 506.236 425.042 C 505.677 425.042 504.556 425.042 503.998 424.484 C 502.318 423.363 501.759 422.242 501.759 420.562 L 501.759 364.562 C 501.759 362.878 502.88 361.199 504.56 360.64 L 526.392 349.437 Z M 524.72 360.636 L 511.279 367.355 L 511.279 413.277 L 524.72 406.558 L 524.72 360.636 Z M 346.64 394.239 C 347.761 393.122 349.441 393.122 351.121 393.681 L 373.519 401.52 C 375.198 402.641 376.319 404.321 376.319 406.001 L 376.315 463.681 C 376.315 465.364 375.198 467.044 374.077 467.603 C 373.519 468.161 372.96 468.161 371.839 468.161 C 371.28 468.161 370.718 467.603 370.159 467.603 L 347.761 457.525 C 346.081 456.962 344.96 455.283 344.96 453.603 L 344.96 398.162 C 344.96 396.478 345.519 395.361 346.64 394.24 L 346.64 394.239 Z M 353.921 450.803 L 367.362 456.963 L 367.362 409.361 L 353.921 404.322 L 353.921 450.803 Z M 313.6 298.479 C 315.28 299.6 316.397 301.28 316.956 302.96 L 316.956 331.519 C 316.956 333.202 315.838 334.882 314.717 335.441 C 314.159 335.999 313.6 335.999 312.479 335.999 C 311.92 335.999 311.358 335.441 310.799 335.441 L 288.401 325.363 C 286.722 324.8 285.6 323.12 285.6 321.441 L 285.6 295.121 C 285.6 293.437 286.159 292.32 287.28 291.199 C 288.401 290.082 290.081 290.082 291.202 290.64 L 313.6 298.48 L 313.6 298.479 Z M 307.44 306.316 L 293.999 301.277 L 293.999 318.078 L 307.44 324.238 L 307.44 306.316 Z M 334.88 342.719 C 333.2 342.161 332.079 340.481 332.634 338.797 L 332.634 312.477 C 332.634 310.794 333.193 309.676 334.314 308.555 C 335.435 307.438 337.114 307.438 338.236 307.997 L 360.634 315.837 C 362.313 316.958 363.434 318.637 363.434 320.317 L 363.434 348.876 C 363.434 350.56 362.317 352.239 361.196 352.798 C 360.637 353.357 360.079 353.357 358.958 353.357 C 358.399 353.357 357.837 352.798 357.278 352.798 L 334.88 342.72 L 334.88 342.719 Z M 341.04 335.443 L 354.481 341.603 L 354.481 323.681 L 341.04 318.642 L 341.04 335.443 Z M 173.04 244.159 C 174.72 245.28 175.841 246.96 176.396 248.64 L 176.396 277.199 C 176.396 278.882 175.278 280.562 174.157 281.121 C 173.599 281.679 173.04 281.679 171.919 281.679 C 171.36 281.679 170.798 281.121 170.239 281.121 L 147.841 271.043 C 146.162 270.48 145.04 268.8 145.04 267.121 L 145.04 240.801 C 145.04 239.117 145.599 238 146.72 236.879 C 147.841 235.762 149.521 235.762 150.642 236.32 L 173.04 244.16 L 173.04 244.159 Z M 166.88 252 L 153.439 246.961 L 153.439 263.762 L 166.88 269.922 L 166.88 252 Z M 313.04 444.079 C 311.923 443.521 310.802 441.841 310.802 440.161 L 310.802 384.72 C 310.802 383.037 311.36 381.919 312.481 380.798 C 313.603 379.681 315.282 379.681 316.403 380.24 L 338.801 388.08 C 340.481 389.201 341.602 390.88 341.602 392.56 L 341.594 450.236 C 341.594 451.92 340.477 453.599 339.356 454.158 C 338.797 454.717 338.239 454.717 337.118 454.717 C 336.559 454.717 335.997 454.158 335.438 454.158 L 313.04 444.08 L 313.04 444.079 Z M 319.763 436.803 L 333.204 443.522 L 333.204 395.92 L 319.763 390.881 L 319.763 436.803 Z M 266.56 279.999 C 268.24 280.558 269.923 282.237 269.357 283.917 L 269.357 312.476 C 269.357 314.16 268.24 315.839 267.119 316.398 C 266.56 316.957 266.001 316.957 264.88 316.957 C 264.322 316.957 263.759 316.398 263.201 316.398 L 240.803 306.32 C 239.123 305.758 238.002 304.078 238.002 302.398 L 238.002 276.078 C 238.002 274.398 238.56 273.281 240.24 272.719 C 241.361 271.602 243.041 271.602 244.162 272.16 L 266.56 280 L 266.56 279.999 Z M 260.4 287.277 L 246.959 282.238 L 246.959 299.039 L 260.4 305.199 L 260.4 287.277 Z M 219.52 262.639 C 221.762 263.198 222.879 264.877 222.876 267.12 L 222.876 295.679 C 222.876 297.362 221.758 299.042 220.637 299.601 C 220.079 300.159 219.52 300.159 218.399 300.159 C 217.84 300.159 217.278 299.601 216.719 299.601 L 194.321 289.523 C 192.642 288.96 191.52 287.28 191.52 285.601 L 191.52 259.281 C 191.52 257.597 192.079 256.48 193.2 255.359 C 194.321 254.242 196.001 254.242 197.122 254.8 L 219.52 262.64 L 219.52 262.639 Z M 213.922 270.476 L 200.481 265.437 L 200.481 282.238 L 213.922 288.398 L 213.922 270.476 Z" style="fill-rule: nonzero;"/>
    </g>
  </g>
</svg>