<?xml version="1.0" encoding="iso-8859-1"?>
<svg version="1.1" id="Layer_1" height="800px" width="800px" x="0px" y="0px" viewBox="0 0 512 512" style="enable-background:new 0 0 512 512;" xmlns="http://www.w3.org/2000/svg">
  <path style="fill:#00CEA6;" d="M 475.994 22.834 C 427.506 44.876 387.107 81.597 360.469 127.322 C 344.48 154.767 364.319 189.218 396.082 189.218 C 401.138 189.218 406.15 188.287 410.868 186.473 L 493.121 144.696 L 511.999 144.696 L 481.643 256 L 512 367.305 L 493.122 367.305 L 410.87 325.529 C 406.152 323.713 401.139 322.783 396.084 322.783 C 364.321 322.783 344.482 357.234 360.471 384.679 C 387.109 430.403 427.507 467.124 475.994 489.166 C 438.775 503.888 398.22 512 355.763 512 C 199.528 512 68.898 402.462 36.426 256 C 68.898 109.538 199.528 0 355.763 0 C 398.22 0 438.773 8.113 475.994 22.834 Z" transform="matrix(-1, 0, 0, -1, 548.426003, 512)"/>
  <path style="fill:#00755F;" d="M 372.695 0.409 C 374.608 0.331 376.515 0.235 378.435 0.183 C 300.114 60.171 254.097 153.894 254.097 256 C 254.097 358.106 300.114 451.829 378.435 511.817 C 376.515 511.765 374.608 511.669 372.695 511.591 C 345.599 510.271 319.37 505.659 294.4 498.137 C 276.975 478.432 261.654 456.809 248.826 433.674 C 218.912 379.724 203.1 318.285 203.1 256 C 203.1 193.715 218.912 132.276 248.826 78.326 C 261.654 55.191 276.975 33.568 294.4 13.863 C 319.37 6.342 345.599 1.729 372.695 0.409 Z" transform="matrix(-1, 0, 0, -1, 581.535004, 511.999972)"/>
  <path style="fill:#00A384;" d="M 69.009 244.87 C 75.156 244.87 80.139 249.853 80.139 256 C 80.139 262.147 75.156 267.13 69.009 267.13 L 66.783 267.13 C 60.636 267.13 55.653 262.147 55.653 256 C 55.653 249.853 60.636 244.87 66.783 244.87 L 69.009 244.87 Z M 322.783 166.957 C 328.93 166.957 333.913 161.973 333.912 155.825 C 333.912 149.678 328.929 144.695 322.782 144.695 L 297.486 144.695 L 289.391 144.695 L 278.607 144.695 L 196.355 186.472 C 191.636 188.286 186.624 189.217 181.569 189.217 C 149.806 189.217 129.967 154.766 145.956 127.321 C 172.595 81.597 212.993 44.876 261.48 22.834 C 224.261 8.113 183.706 0 141.249 0 C 134.452 0 127.707 0.22 121.012 0.629 C 48.37 53.658 0 148.191 0 256 C 0 363.809 48.369 458.342 121.013 511.371 C 127.708 511.78 134.453 512 141.25 512 C 183.707 512 224.26 503.888 261.481 489.164 C 212.994 467.122 172.595 430.401 145.958 384.677 C 129.969 357.232 149.808 322.781 181.571 322.781 C 186.627 322.781 191.639 323.713 196.357 325.527 L 278.609 367.303 L 289.392 367.303 L 297.487 367.303 L 322.783 367.303 C 328.93 367.303 333.913 362.32 333.913 356.173 C 333.913 350.026 328.93 345.043 322.783 345.043 L 291.415 345.043 L 270.057 266.728 C 269.123 266.982 268.145 267.13 267.131 267.13 L 122.435 267.13 C 116.288 267.13 111.305 262.147 111.305 256 C 111.305 249.853 116.288 244.87 122.435 244.87 L 267.131 244.87 C 268.145 244.87 269.123 245.018 270.057 245.272 L 291.415 166.957 L 322.783 166.957 Z" transform="matrix(-1, 0, 0, -1, 333.912994, 512)"/>
  <path style="fill:#0B4237;" d="M 434.086 189.217 C 434.086 195.364 429.103 200.347 422.956 200.347 L 420.73 200.347 C 414.583 200.347 409.6 195.364 409.6 189.217 C 409.6 183.07 414.583 178.087 420.73 178.087 L 422.956 178.087 C 429.103 178.087 434.086 183.07 434.086 189.217 Z" transform="matrix(-1, 0, 0, -1, 843.686005, 378.434006)"/>
  <path style="fill:#00755F;" d="M 434.088 256 C 434.916 252.264 435.825 248.556 436.78 244.87 L 500.87 244.87 C 507.017 244.87 512 249.854 512 256 C 512 262.146 507.017 267.13 500.87 267.13 L 436.78 267.13 C 435.825 263.444 434.916 259.736 434.088 256 Z" transform="matrix(-1, 0, 0, -1, 946.088013, 512)"/>
  <g transform="matrix(-1, 0, 0, 1, 512, 0)"/>
  <g transform="matrix(-1, 0, 0, 1, 512, 0)"/>
  <g transform="matrix(-1, 0, 0, 1, 512, 0)"/>
  <g transform="matrix(-1, 0, 0, 1, 512, 0)"/>
  <g transform="matrix(-1, 0, 0, 1, 512, 0)"/>
  <g transform="matrix(-1, 0, 0, 1, 512, 0)"/>
  <g transform="matrix(-1, 0, 0, 1, 512, 0)"/>
  <g transform="matrix(-1, 0, 0, 1, 512, 0)"/>
  <g transform="matrix(-1, 0, 0, 1, 512, 0)"/>
  <g transform="matrix(-1, 0, 0, 1, 512, 0)"/>
  <g transform="matrix(-1, 0, 0, 1, 512, 0)"/>
  <g transform="matrix(-1, 0, 0, 1, 512, 0)"/>
  <g transform="matrix(-1, 0, 0, 1, 512, 0)"/>
  <g transform="matrix(-1, 0, 0, 1, 512, 0)"/>
  <g transform="matrix(-1, 0, 0, 1, 512, 0)"/>
</svg>
